:SAMPLES-PER-SECOND 30
:FULLY-SPECIFIED
:DEGREES
294
root  6.7504 34.0683 8.89723 7.98801 -66.7256 -2.12871
LeftUpLeg  -9.9616 11.8408 9.92307
LeftLeg  6.40793 9.06751 0.429223
LeftFoot  12.802 -0.228088 2.0329
LeftToes  -28.5681 1.85109e-006 5.31342e-008
Spine  2.42207 1.04091 2.39778
Spine1  4.84087 2.19448 4.49915
RightShoulder  0.0476212 3.70223 7.27805
RightArm  -31.5361 -8.87754 63.1328
RightForeArm  30.895 39.6606 8.41003
RightHand  1.67517 -14.0807 -13.1264
LeftShoulder1  -0.00702719 4.81723 -8.23586
LeftArm  -26.6005 31.1625 -69.0097
LeftForeArm  35.5016 -23.8181 -4.45106
LeftHand  -0.00761189 0.486838 -2.131
HEad  -8.63701 35.2851 -10.9309
RightUpLeg  -12.565 -5.31799 -1.42502
RightLeg  14.157 1.73886 0.322166
RightFoot  -2.36204 -0.00881407 -0.0500077
RightToes  -32.0935 -0.160648 -0.266488
295
root  6.6858 34.0548 8.6417 8.71835 -64.9432 -2.99434
LeftUpLeg  -10.2613 11.2512 10.6962
LeftLeg  5.86244 8.04734 0.304749
LeftFoot  13.5838 -0.22702 1.90596
LeftToes  -29.1565 1.85109e-006 5.31342e-008
Spine  2.35384 1.16239 2.55021
Spine1  4.71639 2.42313 4.82166
RightShoulder  0.0484164 3.62849 7.73236
RightArm  -31.3331 -9.84704 63.2479
RightForeArm  31.3443 36.8503 7.5939
RightHand  1.54998 -13.7908 -12.3889
LeftShoulder1  -0.00628602 5.05093 -8.21022
LeftArm  -25.151 31.4348 -70.7222
LeftForeArm  35.6301 -25.2891 -4.7655
LeftHand  -0.00538464 0.248124 -2.77831
HEad  -7.98473 34.1981 -10.3869
RightUpLeg  -12.3301 -6.28691 -0.51921
RightLeg  14.1345 1.04207 0.19296
RightFoot  -3.31359 -0.010877 -0.0382886
RightToes  -32.1245 -0.159998 -0.265172
296
root  6.60458 34.0335 8.36591 9.74968 -63.0836 -4.25716
LeftUpLeg  -10.6341 10.5257 11.7604
LeftLeg  5.47983 7.05976 0.220434
LeftFoot  14.3436 -0.22115 1.75739
LeftToes  -30.0222 1.85109e-006 5.31342e-008
Spine  2.28374 1.20492 2.79209
Spine1  4.58773 2.48679 5.32311
RightShoulder  0.0492271 3.69141 8.24661
RightArm  -31.4447 -10.8409 63.4233
RightForeArm  32.0688 32.7384 6.50486
RightHand  1.4222 -13.4479 -11.6439
LeftShoulder1  -0.00564369 5.35805 -8.21424
LeftArm  -23.8296 31.6782 -72.1625
LeftForeArm  35.0989 -26.8968 -5.11898
LeftHand  -0.00412776 0.39136 -3.02019
HEad  -7.59864 33.4606 -9.79533
RightUpLeg  -12.0692 -7.13998 0.652713
RightLeg  14.12 0.12915 0.0245542
RightFoot  -4.25833 -0.0135604 0.0128109
RightToes  -32.0145 -0.158036 -0.263408
297
root  6.51167 34.0041 8.08407 10.3245 -61.2006 -5.13545
LeftUpLeg  -10.9493 9.56489 12.7488
LeftLeg  5.10814 6.24928 0.154713
LeftFoot  15.1049 -0.216215 1.63067
LeftToes  -30.7482 1.85109e-006 5.31342e-008
Spine  2.2396 1.22054 2.99506
Spine1  4.50873 2.495 5.75423
RightShoulder  0.0498184 3.75695 8.7741
RightArm  -32.0979 -11.8174 63.7677
RightForeArm  33.1838 27.5528 5.27019
RightHand  1.27866 -13.0964 -10.7297
LeftShoulder1  -0.00508565 5.36661 -8.1176
LeftArm  -22.7674 31.731 -73.3266
LeftForeArm  34.3449 -28.1205 -5.39537
LeftHand  -0.00579083 0.39141 -2.73914
HEad  -7.41574 32.8356 -9.23386
RightUpLeg  -11.782 -8.32257 1.72433
RightLeg  14.1354 -0.374584 -0.0683194
RightFoot  -5.09765 -0.0142945 0.0564387
RightToes  -31.3119 -0.153059 -0.26098
298
root  6.40523 33.9479 7.80157 10.7395 -59.3519 -5.82947
LeftUpLeg  -11.5407 8.63815 13.6844
LeftLeg  5.27149 5.50023 0.151808
LeftFoot  15.5527 -0.200343 1.46695
LeftToes  -31.4735 1.85109e-006 5.31342e-008
Spine  2.25353 1.25498 3.21441
Spine1  4.53027 2.58763 6.13887
RightShoulder  0.0687923 3.91049 9.51797
RightArm  -33.1535 -12.9476 63.9958
RightForeArm  34.7791 22.3709 4.15133
RightHand  1.14611 -12.8097 -9.80847
LeftShoulder1  -0.00459733 5.35762 -8.07638
LeftArm  -21.7218 31.3845 -74.0686
LeftForeArm  33.6019 -29.18 -5.64003
LeftHand  -0.00673646 0.533583 -2.53276
HEad  -7.42061 32.4348 -8.80619
RightUpLeg  -11.7963 -8.96389 2.73662
RightLeg  14.6852 -1.27839 -0.247806
RightFoot  -6.01476 -0.0114887 0.158889
RightToes  -30.7067 -0.148818 -0.256848
299
root  6.29814 33.8771 7.53185 11.0491 -57.501 -6.41367
LeftUpLeg  -12.3138 7.60802 14.5858
LeftLeg  5.7647 4.83136 0.174846
LeftFoot  15.8028 -0.179133 1.29065
LeftToes  -31.9242 1.85109e-006 5.31342e-008
Spine  2.24884 1.22417 3.44735
Spine1  4.50061 2.52344 6.56012
RightShoulder  0.0929757 4.07907 10.3362
RightArm  -34.8168 -14.6551 64.2654
RightForeArm  36.8789 19.2014 3.50875
RightHand  1.03008 -12.7143 -8.85158
LeftShoulder1  -0.00416415 5.26243 -8.09447
LeftArm  -20.9028 30.8089 -74.4763
LeftForeArm  33.3127 -29.8535 -5.7981
LeftHand  -0.00779066 0.462285 -2.26691
HEad  -7.43968 32.1006 -8.45433
RightUpLeg  -12.0167 -9.87296 3.72686
RightLeg  15.6138 -2.01474 -0.425063
RightFoot  -7.19427 -0.0061358 0.279973
RightToes  -29.2221 -0.138601 -0.246523
300
root  6.18371 33.8165 7.27006 11.3137 -55.6486 -7.00426
LeftUpLeg  -13.0031 6.77167 15.4859
LeftLeg  6.08505 3.98744 0.166517
LeftFoot  16.1775 -0.15171 1.06743
LeftToes  -32.4976 1.85109e-006 5.31342e-008
Spine  2.20838 1.06883 3.68322
Spine1  4.40169 2.16654 7.0588
RightShoulder  0.107965 4.29798 10.9054
RightArm  -37.3766 -16.5294 64.7233
RightForeArm  39.6688 16.217 2.92579
RightHand  0.908754 -12.7113 -7.77119
LeftShoulder1  -0.00377156 5.1859 -8.04655
LeftArm  -20.5016 30.1939 -74.7809
LeftForeArm  33.1975 -30.3668 -5.92
LeftHand  -0.00946774 0.616718 -2.1052
HEad  -7.42219 31.7955 -8.20448
RightUpLeg  -11.9946 -10.9664 4.74879
RightLeg  15.9813 -2.72379 -0.593014
RightFoot  -7.66523 0.00096161 0.391939
RightToes  -28.6046 -0.134431 -0.242151
301
root  6.06851 33.7641 7.02435 11.49 -53.9491 -7.52466
LeftUpLeg  -13.5291 6.26562 16.299
LeftLeg  6.15509 2.96193 0.127173
LeftFoot  16.6003 -0.114645 0.785822
LeftToes  -32.8988 1.85109e-006 5.31342e-008
Spine  2.15797 0.874598 3.89953
Spine1  4.2848 1.70658 7.5691
RightShoulder  0.112871 4.45713 11.2952
RightArm  -40.3551 -18.4563 65.1909
RightForeArm  42.5635 13.5993 2.42865
RightHand  0.843277 -12.8748 -7.08995
LeftShoulder1  -0.00340497 5.05235 -8.09566
LeftArm  -20.3684 29.5292 -74.8268
LeftForeArm  32.9358 -30.6614 -5.99071
LeftHand  -0.00808168 0.676212 -1.81186
HEad  -7.407 31.5092 -8.18463
RightUpLeg  -11.9192 -12.1702 5.69296
RightLeg  16.1861 -3.12214 -0.691422
RightFoot  -7.45679 0.00353483 0.431834
RightToes  -28.2211 -0.131865 -0.239414
302
root  5.9544 33.7159 6.79899 11.4572 -52.4434 -7.82632
LeftUpLeg  -13.8755 5.94777 16.9271
LeftLeg  6.00451 1.93317 0.0777066
LeftFoot  17.072 -0.0741411 0.493953
LeftToes  -33.1065 1.85109e-006 5.31342e-008
Spine  2.12023 0.673032 4.06774
Spine1  4.19258 1.22608 8.00414
RightShoulder  0.109905 4.52651 11.5961
RightArm  -42.9103 -20.3525 65.4949
RightForeArm  44.8973 11.4581 2.03031
RightHand  0.840846 -13.1579 -6.90759
LeftShoulder1  -0.00304983 4.89401 -8.15736
LeftArm  -20.3499 28.8437 -74.6935
LeftForeArm  32.5268 -30.8313 -6.03186
LeftHand  -0.00563059 0.676598 -1.29941
HEad  -7.38696 31.2481 -8.20434
RightUpLeg  -11.9058 -13.2919 6.45869
RightLeg  16.4528 -3.38081 -0.765233
RightFoot  -7.18073 0.00519897 0.446503
RightToes  -27.5117 -0.127167 -0.234305
303
root  5.82854 33.6729 6.59363 11.3724 -51.1355 -8.134
LeftUpLeg  -14.1085 5.71298 17.5421
LeftLeg  5.9134 0.945841 0.0361761
LeftFoot  17.4804 -0.0309697 0.201434
LeftToes  -33.5186 1.85109e-006 5.31342e-008
Spine  2.10737 0.445889 4.24191
Spine1  4.14722 0.700674 8.44505
RightShoulder  0.104179 4.67419 11.7268
RightArm  -45.1709 -22.2121 65.6621
RightForeArm  46.6642 9.91837 1.74753
RightHand  0.857019 -13.4104 -6.90673
LeftShoulder1  -0.00269157 4.85884 -8.24988
LeftArm  -20.6447 28.196 -74.4931
LeftForeArm  32.2564 -30.9637 -6.06401
LeftHand  -0.0024311 0.683719 -0.76959
HEad  -7.41297 31.1085 -8.24388
RightUpLeg  -11.7523 -13.8165 7.18573
RightLeg  16.6301 -4.01448 -0.921507
RightFoot  -6.81815 0.00350793 0.497537
RightToes  -26.1302 -0.118201 -0.224191
304
root  5.70956 33.6353 6.4049 11.1999 -50.1996 -8.18883
LeftUpLeg  -14.2576 5.24795 17.9911
LeftLeg  5.71895 0.527715 0.0181125
LeftFoot  17.9581 -0.0116972 0.0740193
LeftToes  -33.8 1.85109e-006 5.31342e-008
Spine  2.0963 0.293679 4.34356
Spine1  4.11058 0.342865 8.72046
RightShoulder  0.0940657 4.55945 11.7721
RightArm  -46.0253 -23.7641 65.6485
RightForeArm  47.645 9.00613 1.58139
RightHand  0.861724 -13.6109 -6.83818
LeftShoulder1  -0.00231562 4.85869 -8.27104
LeftArm  -21.0113 27.6425 -74.2317
LeftForeArm  32.0721 -31.1664 -6.11323
LeftHand  0.000925097 0.791763 -0.234006
HEad  -7.50788 31.0129 -8.24964
RightUpLeg  -11.7132 -14.0172 7.71202
RightLeg  16.6626 -4.57039 -1.05152
RightFoot  -5.40008 0.00807322 0.441599
RightToes  -23.2904 -0.100551 -0.202737
305
root  5.60641 33.605 6.22107 11.0923 -49.3922 -8.2782
LeftUpLeg  -14.4357 4.76114 18.4411
LeftLeg  5.58568 0.269698 0.00832228
LeftFoot  18.3909 0.00127836 -0.00790585
LeftToes  -33.8951 1.85109e-006 5.31342e-008
Spine  2.07437 0.129269 4.46179
Spine1  4.05081 -0.0215427 8.99919
RightShoulder  0.0866161 4.52786 11.6945
RightArm  -46.6571 -24.9376 65.4247
RightForeArm  48.8808 8.35243 1.46199
RightHand  0.890416 -13.6207 -7.0721
LeftShoulder1  -0.0019074 4.79946 -8.23666
LeftArm  -21.4737 27.3071 -73.9575
LeftForeArm  31.9011 -31.431 -6.17776
LeftHand  0.00353702 0.641397 0.259112
HEad  -7.4567 31.0259 -8.24566
RightUpLeg  -11.718 -14.4038 8.23388
RightLeg  16.7818 -4.99104 -1.15896
RightFoot  -5.32234 0.00685262 0.471466
RightToes  -21.4327 -0.0895886 -0.188241
306
root  5.51644 33.5882 6.05413 11.1767 -48.9078 -8.55272
LeftUpLeg  -14.5546 4.51041 18.9261
LeftLeg  5.50785 0.179949 0.00510315
LeftFoot  18.6989 0.00678599 -0.0412254
LeftToes  -33.6571 1.85109e-006 5.31342e-008
Spine  2.0653 0.0417957 4.61067
Spine1  4.01816 -0.222525 9.31505
RightShoulder  0.0838732 4.54827 11.6573
RightArm  -46.8944 -25.6134 64.7794
RightForeArm  49.8388 7.90568 1.3804
RightHand  0.91678 -13.5795 -7.31522
LeftShoulder1  -0.00145236 4.66036 -8.20258
LeftArm  -21.836 27.1374 -73.6725
LeftForeArm  31.7237 -31.7474 -6.25539
LeftHand  0.00553368 0.592865 0.749372
HEad  -7.38918 31.0706 -8.22118
RightUpLeg  -11.6483 -14.6194 8.79664
RightLeg  16.6993 -5.26072 -1.21336
RightFoot  -5.4069 0.00580347 0.500519
RightToes  -20.527 -0.0844157 -0.181046
307
root  5.44084 33.5738 5.90346 11.2126 -48.8043 -8.66028
LeftUpLeg  -14.534 4.32896 19.2437
LeftLeg  5.30656 0.418922 0.0112721
LeftFoot  18.9873 -0.00528909 0.0316188
LeftToes  -32.8396 1.85109e-006 5.31342e-008
Spine  2.05495 0.0445963 4.71601
Spine1  3.99069 -0.229657 9.52171
RightShoulder  0.0845561 4.64044 11.566
RightArm  -46.63 -25.7837 63.8938
RightForeArm  50.2251 7.58569 1.32257
RightHand  0.958561 -13.6981 -7.59439
LeftShoulder1  -0.000980315 4.54257 -8.15993
LeftArm  -22.0203 27.0053 -73.3638
LeftForeArm  31.6069 -31.8723 -6.28621
LeftHand  0.00778335 0.621079 1.21241
HEad  -7.3781 31.1209 -8.22729
RightUpLeg  -11.6501 -14.7968 9.19347
RightLeg  16.614 -5.22847 -1.19774
RightFoot  -5.49667 0.00670943 0.501044
RightToes  -18.971 -0.0757973 -0.168498
308
root  5.38035 33.5585 5.76224 11.3459 -48.9727 -8.80063
LeftUpLeg  -14.4953 4.0174 19.5679
LeftLeg  5.13859 1.07457 0.0267353
LeftFoot  19.3306 -0.0415637 0.244038
LeftToes  -32.42 1.85109e-006 5.31342e-008
Spine  2.0462 0.105858 4.83129
Spine1  3.9697 -0.109019 9.72449
RightShoulder  0.0913583 4.92151 11.4488
RightArm  -46.3529 -25.3992 62.7675
RightForeArm  50.4934 7.23301 1.25919
RightHand  1.02813 -13.8885 -8.05262
LeftShoulder1  -0.000663701 4.43358 -8.09019
LeftArm  -22.3695 26.8991 -73.2002
LeftForeArm  31.772 -31.7699 -6.26089
LeftHand  0.0097209 0.544887 1.50891
HEad  -7.55308 31.2412 -8.43931
RightUpLeg  -11.6896 -14.6151 9.56486
RightLeg  16.4809 -5.25584 -1.19112
RightFoot  -5.59124 0.00713259 0.507164
RightToes  -17.6126 -0.0685534 -0.157355
